<?xml version="1.0" encoding="UTF-8" standalone="no"?>
<svg width="28px" height="26px" viewBox="0 0 28 26" version="1.1" xmlns="http://www.w3.org/2000/svg" xmlns:xlink="http://www.w3.org/1999/xlink">
    <defs></defs>
    <g id="Page-1" stroke="none" stroke-width="1" fill="none" fill-rule="evenodd">
        <g id="heart74" transform="translate(1.000000, 1.000000)" stroke="#5B677B">
            <path d="M23.0179713,13.1497728 L13,23.64288 L2.96485649,13.13088 C0.811545988,10.791168 -0.265003262,8.5696512 -0.265003262,6.4672512 C-0.265003262,5.4537216 -0.141193738,4.558848 0.106213307,3.7830912 C0.353832355,3.0073344 0.670564253,2.390784 1.056197,1.9341312 C1.44204175,1.477248 1.91120352,1.105152 2.46389432,0.817152 C3.01679713,0.5293824 3.55803979,0.3353856 4.08762231,0.235392 C4.61720483,0.1353984 5.18134377,0.0854016 5.78025114,0.0854016 C6.37894651,0.0854016 7.02385845,0.2448384 7.71477495,0.5639424 C8.40547945,0.8830464 9.04169928,1.2834816 9.62322244,1.765248 C10.2047456,2.2472448 10.7027397,2.6976768 11.1174168,3.1167744 C11.5318819,3.5363328 11.8772342,3.9208704 12.1536856,4.2713088 C12.3608121,4.5466368 12.6431996,4.684416 13,4.684416 C13.3570124,4.684416 13.6389759,4.5466368 13.8463144,4.2713088 C14.1227658,3.9208704 14.4683301,3.5361024 14.8827952,3.1167744 C15.2972603,2.6976768 15.7954664,2.2474752 16.3767776,1.765248 C16.9583007,1.2834816 17.5945205,0.8830464 18.2856491,0.5639424 C18.9763536,0.2448384 19.6214775,0.0854016 20.2201729,0.0854016 C20.8188682,0.0854016 21.3827952,0.1353984 21.9125897,0.235392 C22.4423842,0.3353856 22.9836269,0.5293824 23.5363177,0.817152 C24.0890085,1.105152 24.5581703,1.4774784 24.944015,1.9341312 C25.3296477,2.390784 25.6463796,3.0073344 25.8939987,3.7830912 C26.1411937,4.558848 26.2650033,5.4537216 26.2650033,6.4672512 C26.2650033,8.5696512 25.1829419,10.7973888 23.0179713,13.1497728 L23.0179713,13.1497728 Z" id="Shape"></path>
        </g>
    </g>
</svg>