<?xml version="1.0" encoding="UTF-8" standalone="no"?>
<svg width="35px" height="26px" version="1.1" xmlns="http://www.w3.org/2000/svg" xmlns:xlink="http://www.w3.org/1999/xlink">
    <defs></defs>
    <g id="Page-1" stroke="none" stroke-width="1" fill="none" fill-rule="evenodd">
        <g id="feed" transform="translate(1.000000, 1.000000)">
            <path d="M9,2 L9,3 L34,3 L34,2 L9,2 Z M9,12 L9,13 L34,13 L34,12 L9,12 Z M9,22 L9,23 L34,23 L34,22 L9,22 Z" id="Rectangle-1" fill="#5B677B"></path>
            <path d="M2,4 C3.1045695,4 4,3.1045695 4,2 C4,0.8954305 3.1045695,0 2,0 C0.8954305,0 0,0.8954305 0,2 C0,3.1045695 0.8954305,4 2,4 Z M2,14 C3.1045695,14 4,13.1045695 4,12 C4,10.8954305 3.1045695,10 2,10 C0.8954305,10 0,10.8954305 0,12 C0,13.1045695 0.8954305,14 2,14 Z M2,24 C3.1045695,24 4,23.1045695 4,22 C4,20.8954305 3.1045695,20 2,20 C0.8954305,20 0,20.8954305 0,22 C0,23.1045695 0.8954305,24 2,24 Z" id="Oval-1" stroke="#5B677B"></path>
        </g>
    </g>
</svg>