<?xml version="1.0" encoding="UTF-8" standalone="no"?>
<svg width="26px" height="26px" version="1.1" xmlns="http://www.w3.org/2000/svg" xmlns:xlink="http://www.w3.org/1999/xlink">
    <defs></defs>
    <g id="Page-1" stroke="none" stroke-width="1" fill="none" fill-rule="evenodd">
        <g id="cog2" transform="translate(1.000000, 1.000000)" stroke="#5B677B">
            <path d="M23.984256,10.02336 C23.900544,9.913728 23.791296,9.848448 23.655744,9.827712 L20.793216,9.38976 C20.636736,8.889216 20.422848,8.378304 20.151744,7.856832 C20.339328,7.596096 20.6208,7.228608 20.99616,6.753984 C21.37152,6.27936 21.63744,5.9328 21.79392,5.713728 C21.87744,5.598912 21.918912,5.479104 21.918912,5.35392 C21.918912,5.208 21.882624,5.093376 21.809472,5.009856 C21.434112,4.477824 20.57376,3.591552 19.228416,2.350464 C19.103616,2.246208 18.973056,2.194176 18.837696,2.194176 C18.681216,2.194176 18.556032,2.241024 18.462144,2.33472 L16.241088,4.008576 C15.813312,3.789504 15.344064,3.596544 14.833152,3.429696 L14.3952,0.551616 C14.384832,0.416064 14.324736,0.303936 14.215296,0.215232 C14.105664,0.126528 13.978176,0.082368 13.831872,0.082368 L10.35936,0.082368 C10.05696,0.082368 9.869184,0.228288 9.796224,0.52032 C9.660672,1.0416 9.509376,2.011392 9.342528,3.429696 C8.852352,3.586368 8.37792,3.784512 7.91904,4.02432 L5.760384,2.350464 C5.624832,2.246208 5.48928,2.194176 5.353728,2.194176 C5.124288,2.194176 4.631616,2.566848 3.87552,3.312576 C3.119424,4.058304 2.606016,4.618752 2.33472,4.994112 C2.240832,5.129664 2.193984,5.249664 2.193984,5.35392 C2.193984,5.479104 2.246016,5.604288 2.350272,5.72928 C3.04896,6.57408 3.606912,7.293504 4.024128,7.888128 C3.763392,8.367744 3.560064,8.847552 3.414144,9.327168 L0.504576,9.76512 C0.389952,9.786048 0.29088,9.853824 0.20736,9.96864 C0.12384,10.083264 0.082176,10.203264 0.082176,10.328256 L0.082176,13.80096 C0.082176,13.936704 0.12384,14.059008 0.20736,14.168448 C0.29088,14.27808 0.40032,14.343552 0.535872,14.364288 L3.398592,14.786688 C3.544512,15.2976 3.758208,15.813696 4.039872,16.334976 C3.852288,16.595712 3.570624,16.9632 3.195264,17.437824 C2.819904,17.912448 2.553792,18.259008 2.397504,18.47808 C2.313984,18.593088 2.27232,18.712704 2.27232,18.837888 C2.27232,18.97344 2.3088,19.093248 2.38176,19.197504 C2.788416,19.760832 3.648768,20.636928 4.962816,21.8256 C5.077632,21.940416 5.208,21.997632 5.35392,21.997632 C5.5104,21.997632 5.640768,21.950784 5.745024,21.857088 L7.95072,20.18304 C8.378496,20.402112 8.847744,20.595072 9.358656,20.762112 L9.796608,23.640192 C9.807168,23.775744 9.867072,23.887872 9.976512,23.976576 C10.085952,24.065472 10.213824,24.10944 10.359744,24.10944 L13.832448,24.10944 C14.135232,24.10944 14.322816,23.96352 14.395968,23.671488 C14.531328,23.150016 14.682432,22.180416 14.84928,20.762112 C15.339456,20.605632 15.81408,20.407296 16.272768,20.167488 L18.431616,21.857088 C18.577536,21.950784 18.71328,21.997632 18.838272,21.997632 C19.06752,21.997632 19.557696,21.627648 20.308416,20.887104 C21.05952,20.146752 21.575616,19.583424 21.856896,19.197504 C21.950784,19.093248 21.997824,18.97344 21.997824,18.837888 C21.997824,18.702336 21.945792,18.571584 21.841344,18.446784 C21.090624,17.529024 20.532672,16.8096 20.167488,16.288128 C20.376,15.902208 20.57952,15.427776 20.777664,14.86464 L23.671488,14.42688 C23.79648,14.405952 23.90112,14.337984 23.984448,14.223168 C24.067776,14.108352 24.109248,13.988352 24.109248,13.86336 L24.109248,10.390848 C24.10944,10.255296 24.067968,10.132992 23.984256,10.02336 L23.984256,10.02336 Z M14.927424,14.927232 C14.145408,15.70944 13.201536,16.100544 12.096,16.100544 C10.990464,16.100544 10.046784,15.70944 9.264576,14.927232 C8.48256,14.145216 8.091456,13.201536 8.091456,12.096 C8.091456,10.990464 8.482368,10.046784 9.264576,9.264576 C10.046784,8.48256 10.990656,8.091456 12.096,8.091456 C13.201536,8.091456 14.145408,8.48256 14.927424,9.264576 C15.70944,10.046784 16.100544,10.990464 16.100544,12.096 C16.100544,13.201536 15.70944,14.145216 14.927424,14.927232 L14.927424,14.927232 Z" id="Shape"></path>
        </g>
    </g>
</svg>